<svg width="534" height="275" viewBox="0 0 534 275" fill="none" xmlns="http://www.w3.org/2000/svg">
<path d="M475.935 123.383C473.715 101.321 463.039 79.2271 444.552 63.4338C415.741 38.8258 372.156 32.6228 333.959 38.3116C317.962 40.6949 302.095 44.9146 285.714 43.5842C261.824 41.6498 240.775 28.3623 219.023 18.6333C189.396 5.3784 155.458 -1.74692 123.97 4.01537C88.278 10.553 59.0096 35.2509 55.5163 68.0208C53.9329 82.8673 70.0118 109.026 64.9351 123.097C59.7849 137.372 22.2076 181.087 23.1381 214.339C24.0604 247.468 32.712 257.768 44.9466 274.606H444.307C451.922 257.548 457.889 243.901 448.976 221.497C441.851 203.598 461.203 188.857 468.695 172.191C475.363 157.361 477.551 139.527 475.927 123.375L475.935 123.383Z" fill="#F5F5F5"/>
<path d="M431.877 255.091C435.77 235.739 429.527 219.236 427.976 200.268C426.507 182.303 432.881 167.204 436.423 150.097C439.574 134.875 438.521 117.629 434.571 102.668C429.176 82.2388 416.737 63.3196 398.83 51.7869C370.924 33.8144 333.698 35.9365 302.871 48.2936C289.958 53.4682 277.454 60.3568 263.62 62.1035C243.452 64.6418 223.823 55.9494 204.169 50.734C177.422 43.6332 148.064 43.1108 122.828 54.3171C94.2121 67.0251 73.8727 95.7059 76.2478 127.292C77.3252 141.608 82.8344 155.728 80.8838 169.946C78.9086 184.368 70.3386 196.432 65.8006 210.013C59.6139 228.549 59.0507 255.793 69.0001 274.606H425.176C428.245 268.452 430.514 261.865 431.877 255.091Z" fill="#E0E0E0"/>
<path d="M365.642 194.473C364.508 182.785 359.039 171.073 349.563 162.707C334.798 149.672 312.476 146.383 292.903 149.395C284.709 150.66 276.58 152.896 268.181 152.186C255.938 151.158 245.156 144.122 234.016 138.964C218.843 131.945 201.458 128.166 185.322 131.218C167.031 134.679 152.038 147.771 150.25 165.131C149.442 172.999 157.677 186.858 155.074 194.318C152.438 201.884 133.184 225.047 133.657 242.661C134.13 260.217 138.562 265.677 144.831 274.598H349.433C353.334 265.555 356.395 258.331 351.824 246.456C348.176 236.972 358.092 229.161 361.928 220.33C365.34 212.47 366.466 203.026 365.634 194.465L365.642 194.473Z" fill="#CCCCCC"/>
<path d="M531.961 274.579H1.33255C0.622462 274.579 0.0429688 274 0.0429688 273.29C0.0429688 272.579 0.622462 272 1.33255 272H531.961C532.671 272 533.25 272.579 533.25 273.29C533.25 274 532.671 274.579 531.961 274.579Z" fill="#DBDBDB"/>
<path opacity="0.2" d="M259.129 99.3905C285.035 99.3905 306.035 78.3899 306.035 52.4842C306.035 26.5786 285.035 5.57788 259.129 5.57788C233.223 5.57788 212.223 26.5786 212.223 52.4842C212.223 78.3899 233.223 99.3905 259.129 99.3905Z" fill="#1B1B25"/>
<path d="M254.184 94.4444C280.089 94.4444 301.09 73.4437 301.09 47.5381C301.09 21.6325 280.089 0.631775 254.184 0.631775C228.278 0.631775 207.277 21.6325 207.277 47.5381C207.277 73.4437 228.278 94.4444 254.184 94.4444Z" fill="#0AADA4"/>
<path d="M254.184 85.4092C233.355 85.4092 216.402 68.4652 216.402 47.6279C216.402 26.7906 233.346 9.84656 254.184 9.84656C275.021 9.84656 291.965 26.7906 291.965 47.6279C291.965 68.4652 275.021 85.4092 254.184 85.4092ZM254.184 12.3033C234.701 12.3033 218.851 28.1537 218.851 47.6361C218.851 67.1185 234.701 82.9688 254.184 82.9688C273.666 82.9688 289.516 67.1185 289.516 47.6361C289.516 28.1537 273.666 12.3033 254.184 12.3033Z" fill="#FCF0E3"/>
<path d="M251.424 64.5638C249.065 64.2781 246.796 63.6823 244.601 62.7927C242.405 61.903 240.406 60.7685 238.594 59.3973L242.838 53.2025C244.323 54.3288 245.768 55.2592 247.164 56.002C248.559 56.7447 250.069 57.2834 251.702 57.6017V48.9583C249.743 48.4114 248.029 47.8156 246.568 47.1627C245.099 46.5097 243.883 45.7343 242.928 44.8284C241.965 43.9224 241.246 42.8614 240.757 41.6452C240.267 40.4291 240.022 39.0253 240.022 37.4337V37.3276C240.022 35.8095 240.291 34.4301 240.838 33.1977C241.385 31.9652 242.152 30.896 243.148 29.9901C244.144 29.0841 245.352 28.3495 246.764 27.7864C248.176 27.2232 249.735 26.8559 251.441 26.6682V23.5177H257.097V26.7825C259.056 27.0763 260.859 27.5497 262.508 28.2271C264.157 28.8964 265.724 29.7615 267.209 30.8063L263.569 37.1644C262.484 36.438 261.374 35.7932 260.255 35.2382C259.129 34.675 257.986 34.2506 256.827 33.9567V42.1676C260.957 43.2939 263.961 44.7631 265.822 46.575C267.691 48.3869 268.621 50.8192 268.621 53.8636V53.9697C268.621 55.4959 268.344 56.8671 267.781 58.0996C267.217 59.332 266.442 60.4012 265.438 61.3072C264.442 62.2132 263.234 62.9559 261.822 63.5354C260.41 64.1149 258.835 64.4985 257.097 64.6781V70.0567H251.441V64.5638H251.424ZM251.694 33.467C250.388 33.6466 249.441 34.0384 248.837 34.6342C248.241 35.23 247.939 35.9646 247.939 36.8379V36.944C247.939 37.7765 248.192 38.4947 248.698 39.0906C249.204 39.6864 250.2 40.2577 251.685 40.8046V33.467H251.694ZM256.803 57.8792C259.374 57.4793 260.663 56.3203 260.663 54.4023V54.2962C260.663 53.3575 260.394 52.5822 259.847 51.9863C259.3 51.3905 258.288 50.8192 256.803 50.2723V57.8874V57.8792Z" fill="#1B1B25"/>
<path d="M254.184 94.4444C280.089 94.4444 301.09 73.4437 301.09 47.5381C301.09 21.6325 280.089 0.631775 254.184 0.631775C228.278 0.631775 207.277 21.6325 207.277 47.5381C207.277 73.4437 228.278 94.4444 254.184 94.4444Z" fill="#0AADA4"/>
<path d="M240.812 63.4746V58.8724C243.847 57.6247 247.172 54.3851 247.172 50.5235C247.172 49.7289 247.172 48.9918 247.056 48.2511H241.443V42.3472H246.027C245.744 40.927 245.57 39.3378 245.57 37.7449C245.57 30.6473 250.78 25.9336 258.511 25.9336C261.604 25.9336 263.954 26.6167 265.212 27.2963L263.838 33.8258C262.695 33.2002 261.089 32.8047 258.971 32.8047C254.903 32.8047 253.641 35.3611 253.641 38.1441C253.641 39.6218 253.87 40.927 254.214 42.3472H262.064V48.2511H254.961C255.016 49.6138 254.845 50.9765 254.443 52.2853C253.931 53.7056 253.01 55.1258 251.64 56.3195V56.4346H266.931V63.4782H240.812V63.4746Z" fill="white"/>
<path d="M254.184 85.4092C233.355 85.4092 216.402 68.4652 216.402 47.6279C216.402 26.7906 233.346 9.84656 254.184 9.84656C275.021 9.84656 291.965 26.7906 291.965 47.6279C291.965 68.4652 275.021 85.4092 254.184 85.4092ZM254.184 12.3033C234.701 12.3033 218.851 28.1537 218.851 47.6361C218.851 67.1185 234.701 82.9688 254.184 82.9688C273.666 82.9688 289.516 67.1185 289.516 47.6361C289.516 28.1537 273.666 12.3033 254.184 12.3033Z" fill="#FCF0E3"/>
<path opacity="0.1" d="M207.447 47.0484C219.167 47.0484 228.668 37.5475 228.668 25.8275C228.668 14.1075 219.167 4.60663 207.447 4.60663C195.727 4.60663 186.227 14.1075 186.227 25.8275C186.227 37.5475 195.727 47.0484 207.447 47.0484Z" fill="#1B1B25"/>
<path d="M205.213 44.812C216.933 44.812 226.434 35.3111 226.434 23.5912C226.434 11.8712 216.933 2.37027 205.213 2.37027C193.493 2.37027 183.992 11.8712 183.992 23.5912C183.992 35.3111 193.493 44.812 205.213 44.812Z" fill="#701F7E"/>
<path d="M205.212 40.7229C195.785 40.7229 188.121 33.0508 188.121 23.632C188.121 14.2132 195.793 6.54099 205.212 6.54099C214.631 6.54099 222.303 14.2132 222.303 23.632C222.303 33.0508 214.631 40.7229 205.212 40.7229ZM205.212 7.64284C196.397 7.64284 189.223 14.8171 189.223 23.632C189.223 32.4468 196.397 39.6211 205.212 39.6211C214.027 39.6211 221.201 32.4468 221.201 23.632C221.201 14.8171 214.027 7.64284 205.212 7.64284Z" fill="#FCF0E3"/>
<path d="M200.008 30.0132V28.3124C201.146 27.8513 202.393 26.654 202.393 25.2269C202.393 24.9333 202.393 24.6609 202.349 24.3871H200.244V22.2053H201.963C201.857 21.6804 201.792 21.0931 201.792 20.5044C201.792 17.8814 203.746 16.1393 206.645 16.1393C207.805 16.1393 208.686 16.3918 209.158 16.643L208.642 19.056C208.214 18.8248 207.612 18.6787 206.817 18.6787C205.292 18.6787 204.819 19.6234 204.819 20.6519C204.819 21.198 204.904 21.6804 205.033 22.2053H207.977V24.3871H205.314C205.334 24.8907 205.27 25.3943 205.119 25.878C204.927 26.4029 204.582 26.9278 204.068 27.3689V27.4114H209.802V30.0145H200.008V30.0132Z" fill="white"/>
<path d="M181.242 61.699C181.242 56.6059 177.112 52.4842 172.027 52.4842C177.12 52.4842 181.242 48.3543 181.242 43.2694C181.242 48.3625 185.372 52.4842 190.457 52.4842C185.364 52.4842 181.242 56.6141 181.242 61.699Z" fill="white"/>
<path d="M289.516 108.042C289.516 104.304 286.488 101.276 282.75 101.276C286.488 101.276 289.516 98.2479 289.516 94.5098C289.516 98.2479 292.544 101.276 296.282 101.276C292.544 101.276 289.516 104.304 289.516 108.042Z" fill="white"/>
<path d="M245.271 140.641C245.271 133.768 239.697 128.194 232.824 128.194C239.697 128.194 245.271 122.619 245.271 115.747C245.271 122.619 250.846 128.194 257.718 128.194C250.846 128.194 245.271 133.768 245.271 140.641Z" fill="white"/>
<path d="M288.245 44.608C288.245 38.1682 283.022 32.9446 276.582 32.9446C283.022 32.9446 288.245 27.721 288.245 21.2813C288.245 27.721 293.469 32.9446 299.909 32.9446C293.469 32.9446 288.245 38.1682 288.245 44.608Z" fill="#FCF0E3"/>
<path d="M327.236 52.4842C327.236 48.9338 324.355 46.0526 320.805 46.0526C324.355 46.0526 327.236 43.1715 327.236 39.6211C327.236 43.1715 330.117 46.0526 333.668 46.0526C330.117 46.0526 327.236 48.9338 327.236 52.4842Z" fill="white"/>
<path d="M346.869 200.655H266.85C266.621 200.655 266.441 200.475 266.441 200.247C266.441 200.018 266.621 199.839 266.85 199.839H346.869C347.097 199.839 347.277 200.018 347.277 200.247C347.277 200.475 347.097 200.655 346.869 200.655Z" fill="white"/>
<path d="M346.868 219.427H279.264C279.035 219.427 278.855 219.248 278.855 219.019C278.855 218.791 279.035 218.611 279.264 218.611H346.868C347.097 218.611 347.276 218.791 347.276 219.019C347.276 219.248 347.097 219.427 346.868 219.427Z" fill="white"/>
<path d="M346.869 210.637H297.678C297.449 210.637 297.27 210.457 297.27 210.229C297.27 210 297.449 209.821 297.678 209.821H346.869C347.098 209.821 347.277 210 347.277 210.229C347.277 210.457 347.098 210.637 346.869 210.637Z" fill="white"/>
<path d="M291.539 210.637H266.85C266.621 210.637 266.441 210.457 266.441 210.229C266.441 210 266.621 209.821 266.85 209.821H291.539C291.768 209.821 291.947 210 291.947 210.229C291.947 210.457 291.768 210.637 291.539 210.637Z" fill="white"/>
<path d="M256.372 230.438H176.353C176.125 230.438 175.945 230.258 175.945 230.03C175.945 229.801 176.125 229.621 176.353 229.621H256.372C256.601 229.621 256.781 229.801 256.781 230.03C256.781 230.258 256.601 230.438 256.372 230.438Z" fill="white"/>
<path d="M243.958 249.21H176.353C176.125 249.21 175.945 249.03 175.945 248.802C175.945 248.573 176.125 248.394 176.353 248.394H243.958C244.187 248.394 244.366 248.573 244.366 248.802C244.366 249.03 244.187 249.21 243.958 249.21Z" fill="white"/>
<path d="M225.545 240.42H176.353C176.125 240.42 175.945 240.24 175.945 240.012C175.945 239.783 176.125 239.603 176.353 239.603H225.545C225.774 239.603 225.953 239.783 225.953 240.012C225.953 240.24 225.774 240.42 225.545 240.42Z" fill="white"/>
<path d="M256.371 240.42H231.682C231.453 240.42 231.273 240.24 231.273 240.012C231.273 239.783 231.453 239.603 231.682 239.603H256.371C256.6 239.603 256.779 239.783 256.779 240.012C256.779 240.24 256.6 240.42 256.371 240.42Z" fill="white"/>
<path d="M316.692 154.606L316.716 154.516L328.535 113.404L328.486 113.364C329.016 112.327 330.396 110.091 333.212 108.124C338.084 104.728 338.664 99.0967 338.664 99.0967C341.267 96.5829 344.198 94.4281 346.85 91.9714C347.128 91.7184 347.413 91.4327 347.495 91.0654C347.585 90.6573 347.397 90.2329 347.16 89.882C345.789 87.8496 343.267 87.5558 341.178 88.4944C339.953 89.0413 338.852 89.8248 337.823 90.6818C337.333 91.0899 335.668 92.2081 335.162 92.959L344.565 72.8889C345.397 71.1096 344.851 69.0692 343.349 68.3672C342.598 68.0163 341.741 68.0571 340.974 68.4162C340.484 68.6447 340.043 69.0039 339.668 69.4609C339.7 69.314 339.717 69.2242 339.717 69.2242C328.706 59.9687 315.125 91.4735 315.125 91.4735L311.273 100.574L278.576 161.2C273.956 169.999 277.515 180.871 286.452 185.229C286.583 185.294 286.713 185.343 286.844 185.409C289.464 186.919 292.508 187.792 295.749 187.792H360.097L373.964 154.834L316.7 154.606H316.692Z" fill="#FEC29E"/>
<path opacity="0.17" d="M305.671 187.776C303.582 187.71 304.847 187.751 305.671 187.776V187.776Z" fill="#FF887C"/>
<path opacity="0.17" d="M305.68 187.776C305.974 187.784 306.21 187.792 306.21 187.792C306.014 187.792 305.843 187.784 305.68 187.776Z" fill="#FF887C"/>
<path opacity="0.17" d="M316.723 154.508L314.854 161.021C314.364 162.825 313.809 164.767 313.205 166.751L310.944 174.619C310.634 175.631 310.234 176.586 309.769 177.492C307.818 183.319 306.219 187.784 306.219 187.784L329.358 154.646C323.604 154.646 322.281 154.508 316.723 154.5V154.508Z" fill="#FF887C"/>
<path d="M326.04 95.0158C325.958 95.0158 325.869 94.9913 325.795 94.9342C325.616 94.8036 325.575 94.5424 325.705 94.3628C329.811 88.7964 335.336 91.8 335.385 91.8326C335.581 91.9469 335.655 92.1918 335.54 92.3877C335.434 92.5835 335.181 92.657 334.985 92.5427C334.781 92.4285 330.031 89.8656 326.358 94.8444C326.277 94.9505 326.154 95.0076 326.032 95.0076L326.04 95.0158Z" fill="#FB8E77"/>
<path d="M339.905 69.3875C338.207 71.5259 336.632 73.7704 335.228 76.1129C334.534 77.28 333.898 78.488 333.375 79.7286C332.853 80.961 332.437 82.2833 332.502 83.5239V83.5484C332.518 83.7769 332.347 83.9646 332.119 83.9809C331.89 83.9973 331.702 83.8177 331.686 83.5973C331.686 83.5973 331.686 83.5973 331.686 83.5892C331.645 82.0711 332.143 80.7162 332.698 79.4429C333.269 78.1697 333.939 76.9536 334.673 75.7782C336.142 73.4358 337.767 71.2076 339.53 69.0855C339.611 68.9794 339.766 68.9712 339.872 69.0529C339.978 69.1345 339.987 69.2896 339.905 69.3875Z" fill="#FB8E77"/>
<path d="M337.073 68.2203C335.996 68.963 335.033 69.9425 334.167 70.9627C333.302 71.9911 332.543 73.1093 331.858 74.2683C331.188 75.4354 330.592 76.6515 330.095 77.9003C329.825 78.5206 329.629 79.1654 329.393 79.7939L328.805 81.7282V81.7527C328.732 81.9649 328.503 82.0873 328.291 82.0221C328.079 81.9568 327.956 81.7282 328.021 81.516L328.658 79.549C328.911 78.9042 329.132 78.2513 329.409 77.6228C329.948 76.3495 330.576 75.1171 331.286 73.9336C332.013 72.7583 332.813 71.6238 333.718 70.5791C334.641 69.5425 335.62 68.5713 336.804 67.7796C336.918 67.7061 337.081 67.7306 337.155 67.853C337.228 67.9673 337.204 68.1224 337.089 68.204L337.073 68.2203Z" fill="#FB8E77"/>
<path d="M332.615 68.5305C331.056 70.1628 329.595 71.934 328.339 73.8112C327.718 74.758 327.122 75.7211 326.657 76.7332C326.184 77.7452 325.8 78.7981 325.629 79.8673C325.596 80.0959 325.384 80.2509 325.164 80.2183C324.943 80.1856 324.788 79.9734 324.821 79.7531C324.821 79.7531 324.821 79.7531 324.821 79.7449C325.041 78.5614 325.482 77.4596 325.996 76.4148C326.51 75.3701 327.147 74.3989 327.808 73.4439C329.138 71.5585 330.648 69.82 332.281 68.1877C332.37 68.0979 332.526 68.0979 332.615 68.1877C332.705 68.2774 332.705 68.4244 332.615 68.5223V68.5305Z" fill="#FB8E77"/>
<path d="M465.207 214.457L449.422 171.427C447.545 161.984 438.558 154.826 427.752 154.826L383.661 154.475L333.988 154.663V187.775H349.406L341.448 274.153L450.834 274.773L450.222 216.285L465.207 214.449V214.457Z" fill="#701F7E"/>
<path opacity="0.05" d="M383.58 154.85L383.669 154.483L333.996 154.671V187.784H349.414L349.495 186.91C349.495 169.436 364.693 155.234 383.588 154.85H383.58Z" fill="#1B1B25"/>
<path opacity="0.18" d="M320.805 106.932C320.805 106.932 323.596 130.61 323.759 130.047C323.923 129.475 328.542 113.404 328.542 113.404L320.805 106.932Z" fill="#FF887C"/>
<path d="M385.91 226.822L381.739 205.781L378.515 189.547C378.14 187.637 376.263 186.388 374.353 186.763L358.225 189.963C356.315 190.338 355.066 192.216 355.442 194.126L358.682 210.466L361.253 223.427L362.836 231.401C363.212 233.311 365.089 234.559 366.999 234.184L376.524 232.29L383.127 230.985C385.037 230.609 386.285 228.732 385.91 226.822Z" fill="#1B1B25"/>
<path d="M471.742 246.215L464.469 214.555L431.414 218.603L433.226 226.659L433.054 226.618L397.118 217.722L397.085 217.762C396.097 217.264 394.228 216.081 392.588 213.632C389.576 209.127 384.516 209.005 384.516 209.005C383.544 207.984 382.63 206.891 381.732 205.789L382.573 210.033L382.361 210.147C380.076 211.355 377.496 211.894 374.917 211.69C370.151 211.314 362.356 210.71 359.116 210.457C358.128 210.384 357.181 210.906 356.749 211.804C352.121 221.525 371.979 230.421 376.517 232.299C376.574 232.323 376.623 232.339 376.68 232.364C376.745 232.388 376.811 232.413 376.868 232.437C376.933 232.462 376.982 232.486 377.039 232.511C377.088 232.535 377.145 232.552 377.186 232.568C377.243 232.593 377.284 232.609 377.325 232.625C377.341 232.625 377.366 232.641 377.374 232.65C377.415 232.666 377.439 232.674 377.439 232.674L385.209 235.588L446.734 265.877C447.305 266.154 447.884 266.391 448.464 266.595C451.451 267.958 454.879 268.407 458.323 267.615C467.93 265.411 473.929 255.829 471.725 246.231L471.742 246.215Z" fill="#FEC29E"/>
<path opacity="0.17" d="M469.399 236.004L431.414 218.595C432.679 224.12 431.945 221.68 433.063 226.61L435.65 227.246C446.587 227.981 469.408 236.004 469.408 236.004H469.399Z" fill="#FF887C"/>
<path opacity="0.35" d="M428.347 219.003C428.159 219.003 427.988 218.872 427.947 218.676L423.197 195.684C423.148 195.464 423.295 195.244 423.515 195.203C423.727 195.154 423.956 195.301 423.997 195.521L428.665 218.138L444.646 216.105C444.867 216.073 445.071 216.236 445.103 216.456C445.136 216.677 444.973 216.881 444.752 216.913L428.396 218.995C428.396 218.995 428.363 218.995 428.347 218.995V219.003Z" fill="#1B1B25"/>
<path opacity="0.17" d="M469.648 237.31C469.681 237.465 469.706 237.587 469.714 237.636C469.714 237.604 469.689 237.498 469.648 237.31Z" fill="#FF887C"/>
<path opacity="0.17" d="M469.398 236.004C469.398 236.004 469.488 236.445 469.57 236.877C469.521 236.649 469.472 236.371 469.398 236.004Z" fill="#FF887C"/>
<path opacity="0.17" d="M469.57 236.877C469.603 237.057 469.636 237.204 469.66 237.31C469.636 237.179 469.603 237.033 469.57 236.877Z" fill="#FF887C"/>
<path d="M424.599 69.5915C423.595 62.6621 417.269 57.7323 410.258 58.524C408.397 58.7362 406.675 59.3321 405.157 60.2217C402.904 56.5325 398.652 54.2717 394.073 54.7859C391.453 55.0797 389.152 56.2469 387.397 57.9445C384.867 56.6794 381.961 56.0918 378.941 56.4346C370.641 57.3732 364.674 64.8658 365.613 73.1583C366.054 77.0433 367.931 80.406 370.649 82.7975L367.572 99.2192C366.69 103.937 369.792 108.467 374.509 109.348L410.928 116.163C415.645 117.045 420.175 113.943 421.056 109.226L427.023 77.3535C427.57 74.4152 426.574 71.5422 424.591 69.5834L424.599 69.5915Z" fill="#1B1B25"/>
<path d="M371.513 78.5696C371.375 78.5696 371.244 78.5043 371.171 78.3819C364.666 68.0897 373.627 61.4868 373.717 61.4215C373.897 61.2909 374.158 61.3317 374.289 61.5113C374.419 61.6908 374.378 61.952 374.199 62.0826C373.856 62.3356 365.776 68.3101 371.864 77.9493C371.987 78.137 371.93 78.39 371.734 78.5124C371.669 78.5533 371.587 78.5777 371.513 78.5777V78.5696Z" fill="#FCF0E3"/>
<path d="M418.707 101.782L417.907 101.635L409.868 84.3563C407.893 84.0707 406.032 83.3442 404.432 82.2505C402.889 83.9237 400.767 85.0746 398.335 85.3439C395.405 85.6785 392.63 84.6746 390.614 82.83C388.369 84.7971 385.537 86.1356 382.346 86.4947C378.698 86.911 375.204 85.9805 372.364 84.1196L366.765 114.033C365.99 118.163 366.838 122.219 368.838 125.566C370.83 130.487 375.106 134.356 380.616 135.621V155.381C380.616 162.245 386.231 167.861 393.095 167.861H397.029C403.893 167.861 409.509 162.245 409.509 155.381V132.952C411.533 130.732 412.994 127.949 413.59 124.774L414.61 119.314L415.41 119.461C420.135 120.342 424.731 117.2 425.612 112.474L425.702 111.992C426.583 107.267 423.441 102.672 418.715 101.79L418.707 101.782Z" fill="#FEC29E"/>
<path opacity="0.32" d="M412.751 118.612L412.025 122.505C410.343 131.491 401.692 137.417 392.697 135.735L379.989 133.352C375.133 132.446 371.183 129.491 368.832 125.557C370.905 130.683 375.451 134.682 381.287 135.776L381.793 135.874C383.809 140.061 388.094 142.975 393.024 142.975H397.007C402.892 142.975 407.854 138.837 409.144 133.328C411.355 131.042 412.939 128.12 413.567 124.766L414.588 119.305L412.735 118.612H412.751Z" fill="#FF887C"/>
<path d="M419.407 113.502C419.317 113.502 419.228 113.478 419.154 113.421L415.979 110.956C415.881 110.883 415.824 110.768 415.824 110.654C415.824 110.532 415.865 110.417 415.955 110.336L419.873 106.638C420.036 106.483 420.297 106.491 420.452 106.655C420.607 106.818 420.599 107.079 420.436 107.234L416.869 110.605L419.668 112.776C419.848 112.915 419.881 113.168 419.742 113.347C419.66 113.454 419.538 113.502 419.424 113.502H419.407Z" fill="#FB8E77"/>
<path d="M399.205 98.3132C398.593 98.2969 397.965 97.9214 397.328 97.6031C396.7 97.2603 396.063 96.942 395.492 96.6727C394.929 96.4115 394.268 96.1258 393.598 95.8646C392.945 95.5871 392.252 95.3423 391.852 94.8852C391.46 94.4526 391.541 93.7752 392.447 93.3181C393.313 92.8692 395.084 92.755 396.961 93.6283C398.83 94.5016 399.867 95.9218 400.054 96.8685C400.267 97.848 399.777 98.3377 399.189 98.3132H399.205Z" fill="#1B1B25"/>
<path d="M373.243 96.0768C373.774 96.3707 374.5 96.4115 375.21 96.4849C375.92 96.5502 376.63 96.6237 377.251 96.7135C377.871 96.8033 378.581 96.9175 379.275 97.0563C379.977 97.1787 380.687 97.3419 381.266 97.2032C381.821 97.0808 382.115 96.5339 381.584 95.7504C381.087 94.9832 379.642 94.0282 377.593 93.7344C375.545 93.4487 373.929 93.9792 373.267 94.5832C372.566 95.2035 372.729 95.8075 373.235 96.0768H373.243Z" fill="#1B1B25"/>
<path d="M393.211 105.294L393.259 105.303C393.809 105.406 394.337 105.044 394.44 104.494L394.682 103.203C394.785 102.653 394.423 102.124 393.874 102.021L393.826 102.012C393.276 101.91 392.747 102.271 392.645 102.821L392.403 104.112C392.3 104.662 392.662 105.191 393.211 105.294Z" fill="#1B1B25"/>
<path d="M375.621 102.445L375.669 102.454C376.219 102.557 376.747 102.195 376.85 101.646L377.092 100.354C377.195 99.8046 376.833 99.2758 376.284 99.1728L376.236 99.1638C375.686 99.0609 375.158 99.4229 375.055 99.9722L374.813 101.264C374.71 101.813 375.072 102.342 375.621 102.445Z" fill="#1B1B25"/>
<path opacity="0.17" d="M397.552 110.355L393.943 109.949C393.253 109.872 392.765 109.25 392.841 108.569L392.85 108.496C392.927 107.806 393.549 107.318 394.23 107.395L397.84 107.801C398.529 107.878 399.017 108.5 398.941 109.181L398.933 109.254C398.855 109.944 398.233 110.432 397.552 110.355Z" fill="#FF887C"/>
<path opacity="0.17" d="M373.732 106.604L370.122 106.198C369.433 106.121 368.944 105.499 369.021 104.818L369.029 104.745C369.107 104.055 369.729 103.567 370.41 103.643L374.019 104.049C374.709 104.127 375.197 104.749 375.121 105.43L375.112 105.503C375.035 106.192 374.413 106.681 373.732 106.604Z" fill="#FF887C"/>
<path d="M380.637 124.692C380.515 124.692 380.384 124.635 380.311 124.521C380.18 124.341 380.221 124.08 380.401 123.95C382.115 122.701 384.025 123.403 384.8 123.95C384.988 124.08 385.028 124.333 384.898 124.513C384.767 124.701 384.514 124.741 384.327 124.611C384.253 124.562 382.531 123.395 380.874 124.611C380.801 124.66 380.719 124.692 380.637 124.692Z" fill="#FB8E77"/>
<path d="M383.395 113.094L392.936 111.731L391.891 115.045C391.222 117.167 389.255 118.612 387.027 118.612C385.297 118.612 383.844 117.306 383.656 115.584L383.387 113.094H383.395Z" fill="white"/>
<path d="M385.868 109.707C385.868 109.707 385.803 109.707 385.762 109.691L382.799 108.924C381.542 108.597 380.53 107.724 380.024 106.532C379.518 105.341 379.584 104.002 380.212 102.876L384.717 94.7628C384.832 94.5669 385.077 94.4934 385.272 94.6077C385.468 94.7138 385.542 94.9668 385.428 95.1627L380.922 103.276C380.416 104.19 380.359 105.259 380.775 106.222C381.183 107.177 382 107.879 383.012 108.14L385.974 108.907C386.195 108.964 386.325 109.185 386.268 109.405C386.219 109.593 386.056 109.707 385.876 109.707H385.868Z" fill="#FB8E77"/>
<path d="M247.262 168.391L214.566 107.765L210.713 98.6641C210.713 98.6641 197.132 67.1511 186.121 76.4148C186.121 76.4148 186.138 76.5046 186.17 76.6515C185.795 76.1944 185.354 75.8353 184.865 75.6068C184.097 75.2476 183.24 75.2068 182.489 75.5578C180.988 76.2597 180.441 78.292 181.273 80.0795L190.676 100.15C190.17 99.4068 188.505 98.2805 188.015 97.8724C186.987 97.0154 185.893 96.2318 184.66 95.685C182.563 94.7464 180.049 95.0402 178.678 97.0725C178.441 97.4235 178.253 97.8397 178.343 98.256C178.425 98.6233 178.71 98.9089 178.988 99.162C181.641 101.619 184.579 103.773 187.174 106.287C187.174 106.287 187.754 111.919 192.626 115.314C195.442 117.281 196.822 119.51 197.352 120.554L197.303 120.595L209.146 161.796L191.851 162.025V194.982H230.106C233.354 194.982 236.399 194.109 239.019 192.591C239.141 192.534 239.272 192.477 239.394 192.42C248.323 188.061 251.89 177.19 247.27 168.391H247.262Z" fill="#FEC29E"/>
<path opacity="0.17" d="M219.617 194.974C219.617 194.974 210.729 171.06 209.203 161.69C203.31 161.69 202.42 161.951 196.527 161.951L219.617 194.966V194.974Z" fill="#FF887C"/>
<path d="M199.794 102.198C199.671 102.198 199.549 102.141 199.467 102.035C195.794 97.0562 191.044 99.619 190.84 99.7333C190.644 99.8394 190.399 99.7741 190.285 99.5782C190.179 99.3823 190.244 99.1375 190.44 99.0232C190.497 98.9906 196.015 95.987 200.12 101.553C200.251 101.733 200.218 101.994 200.03 102.125C199.957 102.182 199.875 102.206 199.785 102.206L199.794 102.198Z" fill="#FB8E77"/>
<path d="M186.285 76.2434C187.272 77.231 188.178 78.2839 189.035 79.3776C189.884 80.4713 190.684 81.6139 191.402 82.8137C192.104 84.0217 192.733 85.2705 193.231 86.5845C193.704 87.9067 194.039 89.2943 194.145 90.7226C194.161 90.9511 193.998 91.147 193.769 91.1633C193.541 91.1797 193.345 91.0164 193.328 90.7879V90.7716C193.247 89.4412 192.961 88.1271 192.537 86.8457C192.08 85.5724 191.5 84.34 190.839 83.1484C190.162 81.9649 189.403 80.8304 188.586 79.7285C187.762 78.6349 186.889 77.5738 185.95 76.5944C185.86 76.4883 185.86 76.3414 185.95 76.2434C186.048 76.1536 186.195 76.1536 186.293 76.2434H186.285Z" fill="#FB8E77"/>
<path d="M189.045 74.6763C190.376 75.3619 191.355 76.3903 192.261 77.4677C193.159 78.5532 193.934 79.7367 194.604 80.961C195.297 82.1852 195.869 83.4585 196.415 84.7481L197.158 86.7069L197.819 88.6984C197.893 88.9106 197.77 89.1473 197.558 89.2126C197.346 89.2861 197.109 89.1636 197.044 88.9514V88.9351L196.424 86.9681L195.73 85.0256C195.216 83.7523 194.685 82.4872 194.024 81.2793C193.396 80.0631 192.653 78.9042 191.804 77.835C190.963 76.7821 189.976 75.7537 188.841 75.1415L188.8 75.1171C188.678 75.0518 188.629 74.8967 188.702 74.7742C188.768 74.6518 188.915 74.611 189.037 74.6681L189.045 74.6763Z" fill="#FB8E77"/>
<path d="M193.525 75.3619C194.44 76.1046 195.256 76.9208 196.015 77.7941C196.782 78.6675 197.484 79.5897 198.112 80.561C198.749 81.5323 199.32 82.5443 199.794 83.6136C200.292 84.6664 200.659 85.7765 201.002 86.8946C201.067 87.1068 200.945 87.3354 200.732 87.4007C200.52 87.466 200.292 87.3435 200.226 87.1313V87.1068C199.924 86.0295 199.598 84.9439 199.141 83.9155C198.708 82.879 198.178 81.8751 197.582 80.9201C196.994 79.957 196.333 79.0347 195.607 78.1696C194.888 77.3044 194.097 76.4719 193.248 75.7537H193.24C193.142 75.6639 193.125 75.5088 193.215 75.4109C193.297 75.3129 193.444 75.2966 193.542 75.3782L193.525 75.3619Z" fill="#FB8E77"/>
<path opacity="0.18" d="M195.828 118.261L208.463 116.702L200.652 132.242C200.652 132.242 198.326 120.685 195.828 118.261Z" fill="#FF887C"/>
<path d="M145.05 162.025V162.041C144.854 162.041 144.666 162.025 144.47 162.025H104.542C95.8742 162.025 88.4796 167.469 85.5821 175.116L85.525 175.28C85.5168 175.304 85.5087 175.329 85.4923 175.361L68.5156 221.647L84.2762 223.573V274.977H170.066L176.481 194.974H191.401V161.862L145.05 162.025Z" fill="white"/>
<path opacity="0.05" d="M191.842 161.862L146.266 162.049C163.357 162.767 176.987 176.839 176.987 194.101L176.913 194.974H191.833V161.862H191.842Z" fill="#1B1B25"/>
<path d="M175.928 197.154L159.8 193.954C157.89 193.579 156.021 194.827 155.637 196.737L152.413 212.971L148.242 234.013C147.867 235.922 149.116 237.792 151.026 238.175L157.629 239.481L167.154 241.366C169.063 241.742 170.932 240.493 171.316 238.583L172.899 230.609L175.47 217.648L178.711 201.308C179.086 199.398 177.837 197.529 175.928 197.145V197.154Z" fill="#1B1B25"/>
<path d="M177.616 218.815C177.412 218.391 177.093 218.056 176.71 217.828C176.645 217.73 176.587 217.624 176.514 217.526C176.514 217.526 176.367 217.542 176.13 217.575C175.853 217.493 175.551 217.452 175.257 217.477C172.017 217.73 164.222 218.334 159.456 218.709C156.877 218.913 154.297 218.374 152.012 217.166L151.628 216.962L152.42 212.971C151.563 214.016 150.698 215.053 149.784 216.024C149.319 216.048 146.658 216.285 144.168 218.138C143.246 218.791 142.34 219.656 141.565 220.807C140.594 222.259 139.541 223.263 138.643 223.941C138.112 224.324 137.647 224.594 137.296 224.765L137.264 224.724L101.327 233.621L101.164 233.662L102.984 225.573L69.9117 221.566L62.6394 253.226C60.4357 262.832 66.4347 272.406 76.0413 274.61C79.4856 275.401 82.9217 274.953 85.9008 273.59C86.4803 273.385 87.0598 273.141 87.6311 272.871L148.462 242.925L156.705 239.832C156.705 239.832 157.04 239.701 157.619 239.465L157.497 239.44C161.259 237.906 182.358 228.789 177.608 218.799L177.616 218.815Z" fill="#FEC29E"/>
<path opacity="0.17" d="M64.5106 244.476C64.478 244.648 64.4535 244.754 64.4453 244.803C64.4535 244.745 64.478 244.623 64.5106 244.476Z" fill="#FF887C"/>
<path opacity="0.17" d="M101.098 233.792C101.841 230.364 101.629 230.658 102.755 225.745L64.7617 243.195C64.7617 243.195 68.5243 242.06 73.7235 240.681C74.205 240.501 74.6947 240.338 75.2008 240.207L101.098 233.8V233.792Z" fill="#FF887C"/>
<path opacity="0.17" d="M64.5976 244.003C64.5649 244.166 64.5323 244.329 64.5078 244.468C64.5323 244.346 64.5649 244.19 64.5976 244.003Z" fill="#FF887C"/>
<path opacity="0.17" d="M64.4436 244.803C64.4355 244.852 64.4355 244.852 64.4436 244.803V244.803Z" fill="#FF887C"/>
<path opacity="0.17" d="M64.7648 243.195C64.6995 243.529 64.6505 243.782 64.6016 244.011C64.6832 243.603 64.7648 243.195 64.7648 243.195Z" fill="#FF887C"/>
<path opacity="0.35" d="M105.818 226.153C105.818 226.153 105.786 226.153 105.769 226.153L98.5543 225.263C98.334 225.239 98.1707 225.035 98.2034 224.806C98.2279 224.586 98.4401 224.422 98.6605 224.455L105.484 225.296L109.279 201.063C109.312 200.843 109.524 200.688 109.744 200.72C109.965 200.753 110.12 200.965 110.087 201.186L106.227 225.81C106.194 226.014 106.022 226.153 105.827 226.153H105.818Z" fill="#1B1B25"/>
<path opacity="0.08" d="M114.238 230.405L130.529 229.997C133.566 230.397 138.406 227.654 137.842 224.643L114.238 230.405Z" fill="#FF887C"/>
<path d="M165.633 151.594L160.091 113.894C159.487 109.764 158.288 105.871 156.598 102.272L159.602 101.79C159.602 101.79 157.488 71.1912 123.175 78.4961C119.796 78.1451 116.319 78.2023 112.801 78.7246C96.1267 81.1732 84.6021 96.6726 87.0507 113.347L90.2828 135.319C92.7313 151.994 108.231 163.518 124.905 161.07L162.711 155.512C164.605 155.234 165.911 153.479 165.633 151.586V151.594Z" fill="#1B1B25"/>
<path d="M142.869 100.59C142.665 100.59 142.494 100.443 142.461 100.239C142.429 100.019 142.584 99.8068 142.812 99.7823L153.847 98.2723C153.937 98.2642 154.019 98.2152 154.068 98.1417C154.1 98.1009 154.141 98.0193 154.125 97.905C152.337 87.9557 143.18 83.3687 143.082 83.3198C142.878 83.2218 142.796 82.977 142.894 82.7729C142.992 82.5689 143.237 82.4873 143.441 82.5852C143.539 82.6342 153.064 87.3925 154.925 97.7581C154.982 98.0601 154.908 98.3621 154.729 98.6151C154.549 98.8681 154.263 99.0395 153.961 99.0804L142.927 100.59C142.927 100.59 142.886 100.59 142.869 100.59Z" fill="#FCF0E3"/>
<path d="M153.494 102.778L123.287 107.634L115.957 96.7869C117.394 108.883 108.473 116.702 108.473 116.702C108.473 116.702 108.383 116.579 108.22 116.351L107.967 116.4C103.241 117.281 100.099 121.876 100.98 126.602C101.862 131.328 106.457 134.47 111.183 133.589L111.762 133.483C112.799 138.013 115.125 141.947 118.3 144.926V164.286C118.3 171.15 123.915 176.765 130.779 176.765C137.643 176.765 143.259 171.15 143.259 164.286V148.998C148.229 146.713 152.123 142.714 154.343 137.882C154.343 137.882 154.351 137.866 154.359 137.857C157.061 133.336 158.187 127.851 157.142 122.26L153.494 102.778Z" fill="#FEC29E"/>
<path opacity="0.32" d="M139.243 148.403C128.053 150.5 117.246 143.881 113.818 133.328C113.704 132.985 111.737 133.434 111.786 133.646C112.847 138.135 115.198 142.02 118.365 144.975C118.952 151.3 124.306 156.303 130.787 156.303C135.578 156.303 139.749 153.561 141.838 149.578C147.494 147.431 151.934 143.146 154.358 137.849C151.175 143.179 145.821 147.162 139.243 148.394V148.403Z" fill="#FF887C"/>
<path d="M107.065 127.843C106.942 127.843 106.82 127.786 106.738 127.688C106.6 127.508 106.632 127.255 106.812 127.116L109.53 125.011L106.069 121.746C105.906 121.591 105.898 121.33 106.053 121.166C106.208 121.003 106.469 120.995 106.632 121.15L110.444 124.749C110.534 124.831 110.574 124.945 110.574 125.068C110.574 125.19 110.509 125.296 110.419 125.37L107.326 127.769C107.253 127.827 107.163 127.851 107.073 127.851L107.065 127.843Z" fill="#FB8E77"/>
<path d="M128.8 112.964C129.167 112.956 129.542 112.735 129.91 112.539C130.285 112.335 130.661 112.148 130.995 111.984C131.33 111.829 131.722 111.658 132.122 111.503C132.513 111.34 132.921 111.193 133.158 110.923C133.387 110.67 133.346 110.262 132.799 109.993C132.285 109.723 131.232 109.658 130.122 110.172C129.012 110.695 128.4 111.535 128.286 112.099C128.155 112.678 128.449 112.972 128.8 112.956V112.964Z" fill="#1B1B25"/>
<path d="M150.446 109.201C150.095 109.291 149.67 109.185 149.262 109.103C148.846 109.013 148.43 108.932 148.063 108.875C147.695 108.817 147.271 108.769 146.855 108.728C146.438 108.679 145.998 108.654 145.696 108.458C145.402 108.279 145.337 107.879 145.777 107.463C146.202 107.063 147.189 106.712 148.405 106.899C149.613 107.095 150.438 107.732 150.699 108.238C150.985 108.76 150.78 109.119 150.446 109.201Z" fill="#1B1B25"/>
<path d="M138.219 129.851C134.873 129.851 132.637 127.222 132.612 127.19C132.465 127.018 132.49 126.757 132.661 126.619C132.832 126.472 133.094 126.496 133.232 126.667C133.363 126.823 136.456 130.438 140.782 128.439C140.986 128.341 141.231 128.439 141.321 128.634C141.419 128.839 141.321 129.083 141.125 129.173C140.088 129.655 139.109 129.842 138.211 129.842L138.219 129.851Z" fill="#FB8E77"/>
<path d="M140.649 124.154C140.462 124.154 140.29 124.015 140.249 123.827C140.208 123.607 140.347 123.395 140.568 123.346L143.441 122.782C145.228 122.432 146.387 120.693 146.036 118.914C145.905 118.269 145.285 117.853 144.64 117.975C143.13 118.269 141.661 117.29 141.367 115.78L140.674 112.262C140.633 112.041 140.772 111.829 140.992 111.78C141.212 111.739 141.425 111.878 141.474 112.099L142.167 115.616C142.38 116.686 143.416 117.379 144.485 117.167C145.016 117.061 145.546 117.167 145.995 117.469C146.444 117.771 146.746 118.22 146.844 118.75C147.285 120.979 145.832 123.142 143.604 123.582L140.731 124.145C140.731 124.145 140.674 124.145 140.649 124.145V124.154Z" fill="#FB8E77"/>
<path d="M132.524 119.852C131.977 119.958 131.446 119.591 131.348 119.044L131.12 117.836C131.014 117.29 131.381 116.759 131.928 116.661C132.475 116.555 133.005 116.922 133.103 117.469L133.332 118.677C133.438 119.224 133.071 119.754 132.524 119.852Z" fill="#1B1B25"/>
<path d="M149.637 117.069C149.09 117.175 148.56 116.808 148.462 116.261L148.233 115.053C148.127 114.506 148.494 113.976 149.041 113.878C149.588 113.772 150.119 114.139 150.216 114.686L150.445 115.894C150.551 116.441 150.184 116.971 149.637 117.069Z" fill="#1B1B25"/>
<path opacity="0.17" d="M131.811 124.399L128.367 124.782C127.682 124.856 127.061 124.366 126.988 123.68C126.914 122.995 127.404 122.374 128.09 122.301L131.534 121.917C132.22 121.844 132.84 122.334 132.913 123.019C132.987 123.705 132.497 124.325 131.811 124.399Z" fill="#FF887C"/>
<path opacity="0.17" d="M154.983 120.75L151.539 121.134C150.853 121.207 150.233 120.718 150.16 120.032C150.086 119.346 150.576 118.726 151.261 118.653L154.706 118.269C155.391 118.195 156.012 118.685 156.085 119.371C156.159 120.056 155.669 120.677 154.983 120.75Z" fill="#FF887C"/>
<path d="M144.771 138.739C144.69 138.739 144.6 138.714 144.534 138.657C142.927 137.482 141.262 138.617 141.188 138.657C141 138.788 140.747 138.739 140.617 138.559C140.486 138.372 140.535 138.119 140.715 137.988C141.474 137.458 143.343 136.772 145.008 137.988C145.187 138.119 145.228 138.38 145.098 138.559C145.016 138.666 144.894 138.731 144.771 138.731V138.739Z" fill="#FB8E77"/>
<path d="M130.088 31.0184H58.4267C51.0565 31.0184 45.082 36.9929 45.082 44.3631C45.082 51.7333 51.0565 57.7078 58.4267 57.7078H117.486L125.607 65.1106V57.7078H130.088C137.458 57.7078 143.433 51.7333 143.433 44.3631C143.433 36.9929 137.458 31.0184 130.088 31.0184Z" fill="#701F7E"/>
<path d="M64.8928 42.5267C65.8233 41.7513 66.4191 40.5842 66.4191 39.2701C66.4191 36.9358 64.5255 35.0422 62.1912 35.0422C59.8569 35.0422 57.9634 36.9358 57.9634 39.2701C57.9634 40.576 58.5592 41.7513 59.4896 42.5267C56.4861 43.6285 54.3477 46.5015 54.3477 49.8887C54.3477 54.2227 70.043 54.2227 70.043 49.8887C70.043 46.5097 67.8964 43.6285 64.901 42.5267H64.8928Z" fill="white"/>
<path d="M130.985 38.1927H79.6386C79.41 38.1927 79.2305 38.0132 79.2305 37.7847C79.2305 37.5561 79.41 37.3766 79.6386 37.3766H130.985C131.213 37.3766 131.393 37.5561 131.393 37.7847C131.393 38.0132 131.213 38.1927 130.985 38.1927Z" fill="white"/>
<path d="M123.019 50.2397H79.6386C79.41 50.2397 79.2305 50.0601 79.2305 49.8316C79.2305 49.6031 79.41 49.4235 79.6386 49.4235H123.019C123.247 49.4235 123.427 49.6031 123.427 49.8316C123.427 50.0601 123.247 50.2397 123.019 50.2397Z" fill="white"/>
<path d="M111.201 44.5998H79.6308C79.4022 44.5998 79.2227 44.4203 79.2227 44.1917C79.2227 43.9632 79.4022 43.7836 79.6308 43.7836H111.201C111.429 43.7836 111.609 43.9632 111.609 44.1917C111.609 44.4203 111.429 44.5998 111.201 44.5998Z" fill="white"/>
<path d="M130.989 44.5998H115.146C114.918 44.5998 114.738 44.4203 114.738 44.1917C114.738 43.9632 114.918 43.7836 115.146 43.7836H130.989C131.217 43.7836 131.397 43.9632 131.397 44.1917C131.397 44.4203 131.217 44.5998 130.989 44.5998Z" fill="white"/>
<path d="M67.2643 48.6644C66.9541 48.6644 66.6358 48.542 66.3991 48.3053L63.3221 45.2283C62.8405 44.7467 62.8405 43.9713 63.3221 43.498C63.8037 43.0164 64.579 43.0164 65.0524 43.498L67.2643 45.7098L73.198 39.7761C73.6795 39.2946 74.4549 39.2946 74.9283 39.7761C75.4098 40.2577 75.4098 41.0331 74.9283 41.5065L68.1294 48.3053C67.8928 48.542 67.5744 48.6644 67.2643 48.6644Z" fill="#0AADA4"/>
<path d="M430.77 129.851H513.63C522.151 129.851 529.064 136.756 529.064 145.285C529.064 153.814 522.159 160.719 513.63 160.719H445.339L435.945 169.281V160.719H430.762C422.241 160.719 415.328 153.814 415.328 145.285C415.328 136.756 422.233 129.851 430.762 129.851H430.77Z" fill="#0AADA4"/>
<path d="M511.774 143.016C512.827 142.142 513.497 140.82 513.497 139.343C513.497 136.707 511.358 134.576 508.73 134.576C506.102 134.576 503.963 136.715 503.963 139.343C503.963 140.82 504.633 142.134 505.686 143.016C502.307 144.256 499.891 147.497 499.891 151.308C499.891 156.189 517.577 156.189 517.577 151.308C517.577 147.497 515.162 144.256 511.782 143.016H511.774Z" fill="white"/>
<path d="M520.608 143.75H518.323V141.465C518.323 141.22 518.119 141.016 517.874 141.016H515.792C515.548 141.016 515.344 141.22 515.344 141.465V143.75H513.058C512.813 143.75 512.609 143.954 512.609 144.199V146.281C512.609 146.525 512.813 146.729 513.058 146.729H515.344V149.015C515.344 149.26 515.548 149.464 515.792 149.464H517.874C518.119 149.464 518.323 149.26 518.323 149.015V146.729H520.608C520.853 146.729 521.057 146.525 521.057 146.281V144.199C521.057 143.954 520.853 143.75 520.608 143.75Z" fill="#711F7E"/>
<path d="M492.653 139.057H434.785C434.532 139.057 434.328 138.853 434.328 138.6C434.328 138.347 434.532 138.143 434.785 138.143H492.653C492.906 138.143 493.11 138.347 493.11 138.6C493.11 138.853 492.906 139.057 492.653 139.057Z" fill="white"/>
<path d="M483.675 152.63H434.785C434.532 152.63 434.328 152.426 434.328 152.173C434.328 151.92 434.532 151.716 434.785 151.716H483.675C483.928 151.716 484.132 151.92 484.132 152.173C484.132 152.426 483.928 152.63 483.675 152.63Z" fill="white"/>
<path d="M470.363 146.272H434.785C434.532 146.272 434.328 146.068 434.328 145.815C434.328 145.562 434.532 145.358 434.785 145.358H470.363C470.616 145.358 470.82 145.562 470.82 145.815C470.82 146.068 470.616 146.272 470.363 146.272Z" fill="white"/>
<path d="M492.651 146.272H474.793C474.54 146.272 474.336 146.068 474.336 145.815C474.336 145.562 474.54 145.358 474.793 145.358H492.651C492.904 145.358 493.108 145.562 493.108 145.815C493.108 146.068 492.904 146.272 492.651 146.272Z" fill="white"/>
<path d="M357.279 21.5833H407.923C413.131 21.5833 417.358 25.803 417.358 31.0184C417.358 36.2339 413.139 40.4536 407.923 40.4536H357.279C352.072 40.4536 347.844 36.2339 347.844 31.0184C347.844 25.803 352.063 21.5833 357.279 21.5833Z" fill="#701F7E"/>
<path d="M402.21 27.917H362.943C362.715 27.917 362.535 27.7374 362.535 27.5089C362.535 27.2803 362.715 27.1008 362.943 27.1008H402.21C402.439 27.1008 402.618 27.2803 402.618 27.5089C402.618 27.7374 402.439 27.917 402.21 27.917Z" fill="white"/>
<path d="M396.113 35.0504H362.935C362.707 35.0504 362.527 34.8709 362.527 34.6423C362.527 34.4138 362.707 34.2343 362.935 34.2343H396.113C396.342 34.2343 396.522 34.4138 396.522 34.6423C396.522 34.8709 396.342 35.0504 396.113 35.0504Z" fill="white"/>
<path d="M387.078 31.7122H362.935C362.707 31.7122 362.527 31.5327 362.527 31.3041C362.527 31.0756 362.707 30.896 362.935 30.896H387.078C387.307 30.896 387.486 31.0756 387.486 31.3041C387.486 31.5327 387.307 31.7122 387.078 31.7122Z" fill="white"/>
<path d="M402.212 31.7122H390.1C389.871 31.7122 389.691 31.5327 389.691 31.3041C389.691 31.0756 389.871 30.896 390.1 30.896H402.212C402.44 30.896 402.62 31.0756 402.62 31.3041C402.62 31.5327 402.44 31.7122 402.212 31.7122Z" fill="white"/>
<path d="M26.3096 169.354H89.1398C95.604 169.354 100.844 174.594 100.844 181.05C100.844 187.506 95.604 192.754 89.1398 192.754H26.3096C19.8454 192.754 14.6055 187.514 14.6055 181.05C14.6055 174.586 19.8454 169.354 26.3096 169.354Z" fill="#0AADA4"/>
<path d="M82.0471 177.271H33.337C33.0186 177.271 32.7656 177.018 32.7656 176.7C32.7656 176.381 33.0186 176.128 33.337 176.128H82.0471C82.3654 176.128 82.6184 176.381 82.6184 176.7C82.6184 177.018 82.3654 177.271 82.0471 177.271Z" fill="white"/>
<path d="M74.4892 186.119H33.337C33.0186 186.119 32.7656 185.866 32.7656 185.547C32.7656 185.229 33.0186 184.976 33.337 184.976H74.4892C74.8075 184.976 75.0605 185.229 75.0605 185.547C75.0605 185.866 74.8075 186.119 74.4892 186.119Z" fill="white"/>
<path d="M63.2829 181.972H33.337C33.0186 181.972 32.7656 181.719 32.7656 181.401C32.7656 181.083 33.0186 180.83 33.337 180.83H63.2829C63.6012 180.83 63.8542 181.083 63.8542 181.401C63.8542 181.719 63.6012 181.972 63.2829 181.972Z" fill="white"/>
<path d="M82.0466 181.972H67.0205C66.7022 181.972 66.4492 181.719 66.4492 181.401C66.4492 181.083 66.7022 180.83 67.0205 180.83H82.0466C82.3649 180.83 82.6179 181.083 82.6179 181.401C82.6179 181.719 82.3649 181.972 82.0466 181.972Z" fill="white"/>
</svg>
